# xmcd CD database file
#
# Track frame offsets:
#	150
#	18943
#	40655
#	64290
#	94752
#	138012
#	164824
#	189819
#	204662
#
# Disc length: 3202 seconds
#
# Revision: 0
# Processed by: cddbd v1.5.2PL0 Copyright (c) Steve Scherf et al.
# Submitted via: CDex 1.70beta2
#
DISCID=730c8009
DTITLE=Darpan - Fly Away
DYEAR=1900
DGENRE=New Age
TTITLE0=Reconnected
TTITLE1=Pacha Mama
TTITLE2=Letting It All Go
TTITLE3=White Light Healing
TTITLE4=Spiral/I'm In You
TTITLE5=The River
TTITLE6=Fly Away
TTITLE7=Butterfly Woman
TTITLE8=Lay Down
EXTD=
EXTT0=
EXTT1=
EXTT2=
EXTT3=
EXTT4=
EXTT5=
EXTT6=
EXTT7=
EXTT8=
PLAYORDER=
